<svg version="1.1" id="Ebene_1" xmlns="http://www.w3.org/2000/svg" xmlns:xlink="http://www.w3.org/1999/xlink" x="0px" y="0px"
	 width="110px" height="60px" viewBox="-43 -18 110 60" enable-background="new -43 -18 110 60" xml:space="preserve">
    <g>
        <path fill="#181716" d="M-43,24.8L-31.8,2h-10.3v-6.1H-24v5.5l-11.1,22.4H-24v6.5h-19V24.8z"/>
        <path fill="#181716" d="M-18.5,1.3h-3.4v-5.4h3.4v-4.7c0-6.6,4.4-9.2,8.9-9.2h3.2v6.5h-3.1c-1.3,0-2,0.9-2,2.4v5h5.1v5.4h-5.1v29
            h-6.9v-29H-18.5z"/>
        <path fill="#181716" d="M-4.3-4.1h6.9v3.3h0.1C4.1-3,6-4.5,9.2-4.5c3,0,4.9,1.8,6.2,3.5c1.7-1.9,3.5-3.5,7.2-3.5
            c3.5,0,7.5,2.2,7.5,8.4v26.4h-6.9V6.5c0-2.5-1.2-4.1-3.4-4.1c-2.6,0-3.5,1.7-3.5,4.8v23.1H9.4V6.5C9.4,4,8.2,2.4,6,2.4
            c-2.6,0-3.5,1.7-3.5,4.8v23.1h-6.9V-4.1H-4.3z"/>
    </g>
    <polygon fill="#0B367F" points="37.3,42 37.3,18.1 67,30.3 "/>
</svg>